<?xml version="1.0" encoding="UTF-8" standalone="no"?>
<!-- Creator: CorelDRAW -->
<svg
   xmlns:dc="http://purl.org/dc/elements/1.1/"
   xmlns:cc="http://creativecommons.org/ns#"
   xmlns:rdf="http://www.w3.org/1999/02/22-rdf-syntax-ns#"
   xmlns:svg="http://www.w3.org/2000/svg"
   xmlns="http://www.w3.org/2000/svg"
   xmlns:xlink="http://www.w3.org/1999/xlink"
   xmlns:sodipodi="http://sodipodi.sourceforge.net/DTD/sodipodi-0.dtd"
   xmlns:inkscape="http://www.inkscape.org/namespaces/inkscape"
   xml:space="preserve"
   width="650"
   height="500"
   style="fill-rule:evenodd"
   viewBox="0 0 210 297"
   sodipodi:version="0.32"
   inkscape:version="0.46dev+devel"
   sodipodi:docbase="C:\Documents and Settings\Lumen 2\Desktop"
   sodipodi:docname="molumen_plane_silhouet_in_the_sky_ok.svg"
   id="svg2"
   inkscape:output_extension="org.inkscape.output.svg.inkscape"
   version="1.0"><metadata
   id="metadata17" /><sodipodi:namedview
   inkscape:window-height="778"
   inkscape:window-width="1267"
   inkscape:pageshadow="2"
   inkscape:pageopacity="0.0"
   borderopacity="1.0"
   bordercolor="#666666"
   pagecolor="#ffffff"
   id="namedview15"
   inkscape:zoom="0.53878789"
   inkscape:cx="372.04724"
   inkscape:cy="526.18109"
   inkscape:current-layer="svg2"
   inkscape:window-x="5"
   inkscape:window-y="0"
   showgrid="false" />
 <defs
   id="defs4"><linearGradient
   id="linearGradient2245"><stop
     style="stop-color:#0dadff;stop-opacity:1;"
     offset="0"
     id="stop2247" /><stop
     style="stop-color:#006ba3;stop-opacity:1;"
     offset="1"
     id="stop2249" /></linearGradient>
  <style
   type="text/css"
   id="style6">
   
    .fil0 {fill:#EF7900}
    .fil1 {fill:white}
   
  </style>
 
  <metadata
   id="CorelCorpID_0Corel-Layer" />
  
  <sodipodi:namedview
   inkscape:current-layer="layer1"
   inkscape:document-units="px"
   inkscape:cy="610.9946"
   inkscape:cx="453.20171"
   inkscape:zoom="1.2732944"
   inkscape:pageshadow="2"
   inkscape:pageopacity="0.0"
   borderopacity="1.0"
   bordercolor="#666666"
   pagecolor="#ffffff"
   id="base" />
  <metadata
   id="metadata7">
   <rdf:RDF>
    <cc:Work
   rdf:about="">
     <dc:format>
      image/svg+xml     </dc:format>
     <dc:type
   rdf:resource="http://purl.org/dc/dcmitype/StillImage" />
    <dc:title>plane in the sky</dc:title><dc:date>14 09 2005</dc:date><dc:creator><cc:Agent><dc:title>mo</dc:title></cc:Agent></dc:creator><dc:subject><rdf:Bag><rdf:li>plane</rdf:li><rdf:li>sky</rdf:li><rdf:li>cloud</rdf:li><rdf:li>clouds</rdf:li><rdf:li>skies</rdf:li><rdf:li>planes</rdf:li><rdf:li>wing</rdf:li><rdf:li>wings</rdf:li><rdf:li>tail</rdf:li><rdf:li>pilot</rdf:li><rdf:li>airlines</rdf:li><rdf:li>passenger</rdf:li><rdf:li>reactors</rdf:li><rdf:li>concorde</rdf:li><rdf:li>boeing</rdf:li><rdf:li>airbus</rdf:li><rdf:li>747</rdf:li><rdf:li>737</rdf:li><rdf:li>380</rdf:li><rdf:li>320</rdf:li><rdf:li>traffic</rdf:li><rdf:li>crash</rdf:li><rdf:li>landing</rdf:li><rdf:li>take off</rdf:li><rdf:li>nose</rdf:li><rdf:li>cabin</rdf:li><rdf:li>salon</rdf:li><rdf:li>steward</rdf:li><rdf:li>stewardess</rdf:li><rdf:li>window</rdf:li></rdf:Bag></dc:subject><cc:license
   rdf:resource="http://web.resource.org/cc/PublicDomain" /></cc:Work>
   <cc:License
   rdf:about="http://web.resource.org/cc/PublicDomain"><cc:permits
     rdf:resource="http://web.resource.org/cc/Reproduction" /><cc:permits
     rdf:resource="http://web.resource.org/cc/Distribution" /><cc:permits
     rdf:resource="http://web.resource.org/cc/DerivativeWorks" /></cc:License></rdf:RDF>
  </metadata>
  
 <linearGradient
   inkscape:collect="always"
   xlink:href="#linearGradient2245"
   id="linearGradient2251"
   x1="162.99451"
   y1="139.56212"
   x2="1.8522106"
   y2="111.16156"
   gradientUnits="userSpaceOnUse"
   gradientTransform="translate(8.9523503,-43.526944)" /><linearGradient
   inkscape:collect="always"
   xlink:href="#linearGradient2245"
   id="linearGradient2320"
   gradientUnits="userSpaceOnUse"
   gradientTransform="translate(8.9523503,-43.526944)"
   x1="162.99451"
   y1="139.56212"
   x2="1.8522106"
   y2="111.16156" /></defs>
 <g
   id="g2316"
   transform="matrix(1.9912178,0,0,1.9912178,-110.17185,-6.5343953)"><path
     class="fil0"
     d="M 66.059051,39.817156 C 67.051751,40.265856 67.984351,40.790556 68.852951,41.380356 C 69.922051,35.698556 73.474651,31.142856 78.081451,28.763156 C 78.090751,27.715156 78.188551,26.652656 78.382051,25.584156 C 80.112351,16.061156 88.806151,9.6619558 97.794651,11.295956 C 106.78465,12.928656 112.67185,21.975856 110.94145,31.499356 C 110.78905,32.332356 110.58515,33.140456 110.33145,33.922556 C 112.60655,36.759256 113.99235,40.366756 114.15815,44.235156 C 114.58355,44.391356 115.00705,44.564056 115.42705,44.753956 C 120.36305,46.985156 123.81925,51.095656 125.24715,55.742256 C 125.89625,55.754656 126.54915,55.801856 127.20275,55.885856 C 130.97175,47.571056 141.16975,44.059856 149.98465,48.045156 C 155.29775,50.446756 158.89685,55.025956 160.09675,60.107256 C 161.11125,60.369956 162.11845,60.722556 163.10825,61.169756 C 167.61675,63.208156 170.89085,66.814256 172.51265,70.964456 C 177.62335,73.408656 181.08435,77.892156 182.25655,82.854856 C 183.27035,83.117056 184.27795,83.469556 185.26735,83.917056 C 194.08725,87.905057 198.18765,97.890257 194.42345,106.21526 C 190.65985,114.54036 180.45465,118.05836 171.63475,114.07056 C 170.86355,113.72196 170.12865,113.32666 169.43125,112.89196 C 164.97765,114.93986 159.55595,115.08206 154.57605,112.83056 C 153.74165,112.45306 152.94965,112.02146 152.20205,111.54326 C 151.68145,111.65326 151.15345,111.73946 150.62075,111.80216 C 150.64115,114.03656 150.19495,116.29176 149.22515,118.43656 C 145.46165,126.76226 135.25675,130.27996 126.43705,126.29236 C 125.66605,125.94306 124.93095,125.54856 124.23385,125.11336 C 121.69515,126.28086 118.84185,126.82826 115.93565,126.66696 C 112.78485,131.06506 107.45255,133.95696 101.40565,133.95696 C 99.762051,133.95696 98.171751,133.74266 96.662751,133.34346 C 95.102151,140.97136 87.990051,146.73486 79.453951,146.73486 C 69.774451,146.73486 61.924751,139.32546 61.924751,130.18916 C 61.924751,122.81786 67.034851,116.57166 74.092651,114.43276 C 71.463851,112.63396 69.384351,110.16266 68.137751,107.28726 C 66.166151,107.10296 64.179751,106.59096 62.258651,105.72236 C 61.487651,105.37306 60.752551,104.97856 60.055451,104.54336 C 55.601151,106.59176 50.179951,106.73346 45.200051,104.48206 C 44.365451,104.10466 43.573251,103.67326 42.825851,103.19526 C 39.226551,103.95466 35.297151,103.60026 31.609751,101.93346 C 22.789951,97.945957 18.690051,87.960557 22.454051,79.634756 C 23.622551,77.050556 25.412551,74.929956 27.588451,73.353056 C 24.188951,68.627356 23.279651,62.461656 25.745251,57.007756 C 28.775651,50.306156 35.980851,46.720256 43.277151,47.657856 C 47.046151,39.343056 57.244151,35.831856 66.059051,39.817156 L 66.059051,39.817156 z"
     id="path10"
     style="fill:url(#linearGradient2320);fill-opacity:1" /><path
     id="path1368"
     class="fil1"
     d="M 81.780251,134.80306 C 81.681351,134.54526 81.172851,134.48486 79.096851,134.48486 C 77.688051,134.48486 76.535451,134.43566 76.535451,134.37546 C 76.535451,134.31516 77.225951,133.38106 78.069751,132.29976 C 80.833751,128.75736 83.773751,124.62126 83.773751,124.27476 C 83.773751,124.08796 84.252751,123.26976 84.838251,122.45666 C 85.985351,120.86326 86.074351,120.64706 85.583351,120.64706 C 85.039751,120.64706 85.230051,120.31636 85.979351,119.95896 C 86.538651,119.69226 87.165351,118.87316 88.853351,116.20276 C 90.040651,114.32436 91.012051,112.73566 91.012051,112.67236 C 91.012051,112.60906 90.814751,112.55726 90.573651,112.55726 C 89.970351,112.55726 90.233251,112.21436 90.954351,112.06066 C 91.416251,111.96226 91.865551,111.44336 93.024351,109.66946 C 94.471351,107.45436 95.386051,106.50266 96.212751,106.35176 C 96.877351,106.23056 96.712051,105.85676 95.961651,105.78446 C 95.218751,105.71276 95.116051,105.55786 95.534251,105.13976 C 95.744651,104.92926 95.734051,104.83556 95.481951,104.67976 C 95.211951,104.51296 95.227851,104.43706 95.590251,104.16326 C 95.889751,103.93686 95.924851,103.84026 95.709351,103.83546 C 95.541251,103.83176 95.193651,104.02606 94.936951,104.26716 L 94.470151,104.70576 L 94.960251,101.97866 C 96.014151,96.114257 96.125951,95.724457 97.037451,94.735457 C 97.612551,94.111657 97.782851,93.800157 97.583051,93.738057 C 97.423151,93.688457 96.334351,93.435757 95.163451,93.176557 C 93.992551,92.917257 92.172351,92.395857 91.118451,92.017657 C 90.064651,91.639457 88.771351,91.176357 88.244451,90.988657 C 87.696351,90.793357 84.599451,90.374157 81.006251,90.008757 C 73.537151,89.249357 71.065151,88.735457 60.908951,85.830757 L 53.904551,83.827556 L 46.191951,89.996057 C 37.488551,96.957157 38.414751,96.474557 35.087351,95.782357 L 33.343351,95.419557 L 37.694051,87.658457 C 40.087051,83.389856 41.973551,79.831156 41.886351,79.750156 C 41.799251,79.669156 40.525951,79.111556 39.056851,78.511156 L 36.385951,77.419556 L 36.469351,76.704356 L 36.552851,75.989156 L 39.407451,75.836256 C 40.977451,75.752256 42.313051,75.600856 42.375451,75.499856 C 42.437851,75.398856 41.040251,70.754556 39.269751,65.178856 C 37.499251,59.603256 36.091351,55.000656 36.141151,54.950856 C 36.190951,54.901156 37.133051,54.955256 38.234651,55.071356 C 39.336351,55.187356 40.437251,55.283856 40.681151,55.285956 C 41.020951,55.288856 42.185151,56.819356 45.663151,61.836056 C 48.159251,65.436456 50.427951,68.689056 50.704451,69.063856 C 50.980951,69.438656 52.843051,70.908556 54.842351,72.330156 L 58.477451,74.914956 L 63.940551,75.111256 C 70.032051,75.330156 73.385551,75.608856 83.033251,76.698156 C 89.306351,77.406356 97.875151,78.258156 97.979451,78.183856 C 98.006151,78.164756 98.118851,76.544856 98.230051,74.583856 C 98.347851,72.502956 98.534251,70.895156 98.677551,70.722456 C 98.915351,70.435956 99.647051,70.155856 100.85825,69.887656 C 101.58965,69.725756 101.62715,69.340356 100.91145,69.340356 C 100.38075,69.340356 100.37925,69.334656 100.37925,67.298056 C 100.37925,65.470756 100.33665,65.244556 99.974951,65.149856 C 99.659451,65.067456 99.446551,64.545256 99.006351,62.774756 C 97.983751,58.661956 98.118251,58.971356 97.284551,58.814956 C 96.450551,58.658456 96.481551,58.270156 97.327951,58.270156 C 97.782151,58.270156 97.852351,58.191956 97.758351,57.791156 C 97.696551,57.527656 97.088451,54.876156 96.406851,51.898956 L 95.167851,46.485956 L 94.369451,46.150956 C 93.404951,45.746356 93.342351,45.496656 94.205351,45.496656 C 94.556651,45.496656 94.844051,45.436756 94.844051,45.363556 C 94.844051,45.290256 94.446451,43.551156 93.960551,41.498856 C 93.150951,38.080056 93.106451,37.745756 93.428251,37.510356 C 93.821151,37.223156 93.893751,36.650956 93.563251,36.446656 C 93.444251,36.373156 93.396551,36.232656 93.457151,36.134556 C 93.563651,35.962156 92.041351,30.843756 89.602851,23.175356 C 88.956751,21.144156 88.458851,19.454956 88.496051,19.421856 C 88.639651,19.294156 93.671451,21.221956 93.741251,21.431456 C 93.781851,21.553256 93.931751,21.652956 94.074251,21.652956 C 94.216751,21.652956 94.537551,22.073056 94.787051,22.586456 C 95.347251,23.739556 103.34905,38.428556 112.66005,55.396056 C 116.51525,62.421456 119.73305,68.337156 119.81065,68.542056 C 119.99575,69.030856 121.29355,69.046756 121.69335,68.565156 C 121.94575,68.260956 122.33055,68.233156 124.65565,68.350756 C 128.54465,68.547656 130.74005,68.874056 132.36925,69.497656 C 133.44945,69.911156 133.78425,70.133356 133.70835,70.386556 C 133.65265,70.572256 133.40795,71.921756 133.16435,73.385356 C 132.92085,74.848956 132.67095,76.214156 132.60925,76.418956 C 132.41675,77.058156 129.45535,76.900856 125.09425,76.019956 C 124.41795,75.883256 124.37725,75.905956 124.49455,76.354356 C 124.73675,77.280556 127.31285,81.533956 127.73505,81.704956 C 127.96955,81.799856 132.61615,82.366356 138.06085,82.963656 C 154.89035,84.810156 157.91445,85.301457 163.61105,87.115257 C 168.50755,88.674357 174.09485,91.715857 175.86825,93.787757 C 176.48465,94.507857 176.53525,94.658957 176.31285,95.116357 C 175.77225,96.227557 172.03555,97.610557 167.65265,98.321457 C 165.56745,98.659657 154.86275,98.656857 151.89875,98.317357 C 150.66935,98.176557 145.68765,97.577557 140.82845,96.986257 C 131.49645,95.850757 128.78565,95.743257 126.63205,96.422957 C 125.49495,96.781857 125.41065,96.877957 125.75165,97.426457 C 126.00445,97.833057 125.96865,97.928457 125.39385,98.380057 C 123.63225,99.764157 117.28205,105.20366 117.13375,105.45556 C 116.99425,105.69246 117.42925,105.91566 119.50605,105.74476 C 121.62785,105.57006 125.86315,106.20306 126.51845,106.39126 C 128.32195,106.90926 128.47695,106.77846 128.14985,109.26216 C 127.99605,110.43046 127.76295,111.87606 127.63185,112.47466 C 127.41785,113.42546 126.65965,113.60666 125.55485,113.67776 C 123.75455,113.79006 120.32885,113.43946 119.00715,113.00756 C 118.65585,112.89286 117.81385,112.64496 117.13595,112.45676 C 116.20185,112.19746 115.85635,111.99116 115.70955,111.60506 C 115.56835,111.23366 115.19535,110.99446 114.33415,110.72306 C 113.68435,110.51816 113.15265,110.23606 113.15265,110.09616 C 113.15265,109.95616 113.01545,109.72786 112.84765,109.58866 C 112.59855,109.38186 112.02395,109.79836 109.70755,111.86436 C 105.84165,115.31246 83.039051,134.43126 82.146151,134.97326 C 82.012051,135.05456 81.847451,134.97796 81.780251,134.80306 L 81.780251,134.80306 z"
     sodipodi:nodetypes="csssssssssssssssssscccssssssccccccscccccssssssscccsssssssssssscccssssssssssssssssssssssssssssssssssssccssssssssc"
     style="fill:#ffffff" /></g>
</svg>